<?xml version="1.0" encoding="utf-8"?>

<!-- Uploaded to: SVG Repo, www.svgrepo.com, Generator: SVG Repo Mixer Tools -->
<svg version="1.1" id="Icons" xmlns="http://www.w3.org/2000/svg" xmlns:xlink="http://www.w3.org/1999/xlink" 
	 viewBox="0 0 32 32" xml:space="preserve">
<style type="text/css">
	.st0{fill:none;stroke:#000000;stroke-width:2;stroke-linecap:round;stroke-linejoin:round;stroke-miterlimit:10;}
</style>
<g>
	<circle cx="16" cy="14" r="2"/>
	<path d="M23.4,23.4c2.8-2.2,4.6-5.6,4.6-9.4c0-6.6-5.4-12-12-12S4,7.4,4,14c0,3.8,1.8,7.2,4.6,9.4l-1.5,1.3
		c-0.9,0.8-1.2,2.1-0.8,3.3C6.8,29.2,7.9,30,9.2,30h13.7c1.2,0,2.3-0.8,2.8-1.9c0.5-1.2,0.1-2.5-0.8-3.3L23.4,23.4z M16,20
		c-3.3,0-6-2.7-6-6s2.7-6,6-6s6,2.7,6,6S19.3,20,16,20z M22.7,9.7c0,0-0.1,0.1-0.2,0.1c0,0-0.1,0.1-0.2,0.1c-0.1,0-0.1,0-0.2,0.1
		c-0.1,0-0.1,0-0.2,0c-0.1,0-0.1,0-0.2,0c-0.1,0-0.1,0-0.2-0.1c-0.1,0-0.1-0.1-0.2-0.1c0,0-0.1-0.1-0.1-0.1c0-0.1-0.1-0.1-0.1-0.1
		c0-0.1-0.1-0.1-0.1-0.2c0-0.1,0-0.1-0.1-0.2c0-0.1,0-0.1,0-0.2c0-0.1,0-0.1,0-0.2c0-0.1,0-0.1,0.1-0.2c0-0.1,0-0.1,0.1-0.2
		c0-0.1,0.1-0.1,0.1-0.1c0,0,0.1-0.1,0.1-0.1c0.1,0,0.1-0.1,0.2-0.1c0.1,0,0.1,0,0.2-0.1c0.3-0.1,0.7,0,0.9,0.3
		C22.9,8.5,23,8.7,23,9S22.9,9.5,22.7,9.7z"/>
</g>
</svg>